<svg width="10" height="16" viewBox="0 0 10 16" fill="none" xmlns="http://www.w3.org/2000/svg">
<path d="M8.48633 9.3125H6.28906V15.875H3.35938V9.3125H0.986328V6.58789H3.35938V4.53711C3.35938 3.75586 3.50586 3.0918 3.79883 2.54492C4.0918 1.99805 4.50195 1.58789 5.0293 1.31445C5.57617 1.02148 6.20117 0.875 6.9043 0.875C7.2168 0.875 7.54883 0.894531 7.90039 0.933594C8.25195 0.953125 8.52539 0.982422 8.7207 1.02148L9.01367 1.05078V3.36523H7.8418C7.29492 3.36523 6.89453 3.51172 6.64062 3.80469C6.40625 4.07812 6.28906 4.41992 6.28906 4.83008V6.58789H8.89648L8.48633 9.3125Z" fill="#222222"/>
</svg>
