<svg width="14" height="14" viewBox="0 0 14 14" fill="none" xmlns="http://www.w3.org/2000/svg">
<path d="M3.36719 14V5.24023H0.642578V14H3.36719ZM1.99023 4.06836C2.86914 4.06836 3.57227 3.33594 3.57227 2.45703C3.57227 1.60742 2.86914 0.904297 1.99023 0.904297C1.14062 0.904297 0.4375 1.60742 0.4375 2.45703C0.4375 3.33594 1.14062 4.06836 1.99023 4.06836ZM13.5332 14H13.5625V9.19531C13.5625 6.85156 13.0352 5.03516 10.2812 5.03516C8.96289 5.03516 8.08398 5.76758 7.70312 6.44141H7.67383V5.24023H5.06641V14H7.79102V9.66406C7.79102 8.52148 7.99609 7.4375 9.40234 7.4375C10.8086 7.4375 10.8379 8.72656 10.8379 9.75195V14H13.5332Z" fill="#222222"/>
</svg>
