<svg width="15" height="12" viewBox="0 0 15 12" fill="none" xmlns="http://www.w3.org/2000/svg">
<path d="M2.10938 3.03516C2.10938 2.85938 2.04102 2.70313 1.9043 2.56641L0.585938 0.984375V0.75H4.6875L7.88086 7.72266L10.6641 0.75H14.5898V0.984375L13.4473 2.06836C13.3496 2.14648 13.3105 2.25391 13.3301 2.39062V10.3594C13.3105 10.4961 13.3496 10.6035 13.4473 10.6816L14.5605 11.7656V12H8.99414V11.7656L10.1367 10.6523C10.2148 10.5742 10.2539 10.4668 10.2539 10.3301V3.88477L7.08984 11.9707H6.65039L2.92969 3.88477V9.30469C2.91016 9.53906 2.97852 9.74414 3.13477 9.91992L4.62891 11.7363V11.9707H0.410156V11.7363L1.9043 9.91992C2.08008 9.74414 2.14844 9.53906 2.10938 9.30469V3.03516Z" fill="#222222"/>
</svg>
