<svg width="14" height="14" viewBox="0 0 14 14" fill="none" xmlns="http://www.w3.org/2000/svg">
<path d="M3.19141 9.13281V7.75586H1.81445C1.05273 7.75586 0.4375 8.37109 0.4375 9.13281C0.4375 9.86523 1.05273 10.5098 1.81445 10.5098C2.54688 10.5098 3.19141 9.86523 3.19141 9.13281ZM3.86523 9.13281V12.5605C3.86523 13.3223 4.50977 13.9375 5.24219 13.9375C6.00391 13.9375 6.61914 13.3223 6.61914 12.5605V9.13281C6.61914 8.37109 6.00391 7.75586 5.24219 7.75586C4.50977 7.75586 3.86523 8.37109 3.86523 9.13281ZM5.24219 3.5957H6.61914V2.21875C6.61914 1.45703 6.00391 0.8125 5.24219 0.8125C4.50977 0.8125 3.86523 1.45703 3.86523 2.21875C3.86523 2.95117 4.50977 3.5957 5.24219 3.5957ZM5.24219 4.26953H1.81445C1.05273 4.26953 0.4375 4.88477 0.4375 5.64648C0.4375 6.4082 1.05273 7.02344 1.81445 7.02344H5.24219C6.00391 7.02344 6.61914 6.4082 6.61914 5.64648C6.61914 4.88477 6.00391 4.26953 5.24219 4.26953ZM10.7793 5.64648V7.02344H12.1562C12.918 7.02344 13.5625 6.4082 13.5625 5.64648C13.5625 4.88477 12.918 4.26953 12.1562 4.26953C11.4238 4.26953 10.7793 4.88477 10.7793 5.64648ZM10.1055 5.64648V2.21875C10.1055 1.45703 9.49023 0.8125 8.72852 0.8125C7.9668 0.8125 7.35156 1.45703 7.35156 2.21875V5.64648C7.35156 6.4082 7.9668 7.02344 8.72852 7.02344C9.49023 7.02344 10.1055 6.4082 10.1055 5.64648ZM8.72852 11.1836H7.35156V12.5605C7.35156 13.3223 7.9668 13.9375 8.72852 13.9375C9.49023 13.9375 10.1055 13.3223 10.1055 12.5605C10.1055 11.8281 9.49023 11.1836 8.72852 11.1836ZM8.72852 10.5098H12.1562C12.918 10.5098 13.5625 9.86523 13.5625 9.13281C13.5625 8.37109 12.918 7.75586 12.1562 7.75586H8.72852C7.9668 7.75586 7.35156 8.37109 7.35156 9.13281C7.35156 9.86523 7.9668 10.5098 8.72852 10.5098Z" fill="#222222"/>
</svg>
